# xmcd CD database file
#
# Track frame offsets:
#	150
#	19762
#	39081
#	56984
#	77963
#	98723
#	111122
#	127622
#	145251
#	171068
#	187119
#	219447
#
# Disc length: 3060 seconds
#
# Revision: 0
# Processed by: cddbd v1.4PL0 Copyright (c) Steve Scherf et al.
# Submitted via: CDex 1.50
#
DISCID=9d0bf20c
DTITLE=LIGHTNIN' WILLIE and THE POORBOYS - Buy American
DYEAR=1998
DGENRE=Blues
TTITLE0=Woke Up This Morning
TTITLE1=Hey Babe
TTITLE2=Without Your Love
TTITLE3=Crazy
TTITLE4=Losin' My Baby's Love
TTITLE5=I'm Walkin'
TTITLE6=Tears Falling Down
TTITLE7=Couldn't Do Nothin'
TTITLE8=Thinking Of You
TTITLE9=Treat Her Right
TTITLE10=Cryin' Won't Help
TTITLE11=Bye Bye
EXTD=YEAR: 1998
EXTT0=
EXTT1=
EXTT2=
EXTT3=
EXTT4=
EXTT5=
EXTT6=
EXTT7=
EXTT8=
EXTT9=
EXTT10=
EXTT11=
PLAYORDER=
